<svg width="60" height="60" viewBox="0 0 60 60" fill="none" xmlns="http://www.w3.org/2000/svg">
<path fill-rule="evenodd" clip-rule="evenodd" d="M0 30C0 13.4315 13.4315 0 30 0C46.5687 0 60 13.4315 60 30C60 46.5687 46.5687 60 30 60C13.4315 60 0 46.5687 0 30ZM29.8463 31.2308C35.539 31.2308 40.154 26.6159 40.154 20.9231C40.154 15.2303 35.539 10.6154 29.8463 10.6154C24.1535 10.6154 19.5386 15.2303 19.5386 20.9231C19.5386 26.6159 24.1535 31.2308 29.8463 31.2308ZM45.805 42.9592C46.0163 42.7572 46.0622 42.4345 45.9119 42.1824C42.9053 37.1391 36.8394 33.6923 29.8464 33.6923C22.8529 33.6923 16.7871 37.1394 13.7805 42.1826C13.6303 42.4348 13.6761 42.7572 13.8874 42.9594C18.0507 46.9426 23.6668 49.3846 29.8461 49.3846C36.0257 49.3846 41.6417 46.9424 45.805 42.9592Z" fill="#BABABA"/>
</svg>
